<?xml version="1.0" encoding="UTF-8"?>
<svg width="10px" height="10px" version="1.1" viewBox="0 0 1200 1200" xmlns="http://www.w3.org/2000/svg">
 <path d="m660 0v120h-480c-33.137 0-60 26.863-60 60v840c0 33.137 26.863 60 60 60h840c33.137 0 60-26.863 60-60v-480h120v480c0 99.41-80.59 180-180 180h-840c-99.41 0-180-80.59-180-180v-840c0-99.41 80.59-180 180-180zm480 0 1.1602 0.011719c1.4023 0.027344 2.8008 0.10156 4.1953 0.22656l-5.3555-0.23828c3.0391 0 6.0234 0.22656 8.9375 0.66016 1.0195 0.15625 2.0664 0.34375 3.1055 0.55469 1.3203 0.26172 2.625 0.57422 3.9062 0.92969 0.9375 0.26172 1.8633 0.53906 2.7812 0.83984 1.1758 0.38281 2.3633 0.81641 3.5312 1.2812 1.0664 0.42578 2.1055 0.875 3.1328 1.3555 1.2383 0.58203 2.4648 1.207 3.6602 1.8711 0.73047 0.39844 1.4609 0.82422 2.1875 1.2656 1.5352 0.94531 3.0273 1.9531 4.4688 3.0195 2.3477 1.7422 4.5938 3.6719 6.7148 5.7969l-5.4219-4.8086c3.7891 2.9727 7.207 6.3867 10.184 10.172 0.34375 0.42969 0.69141 0.88672 1.0312 1.3438 1.0703 1.4492 2.0781 2.9414 3.0156 4.4805 0.44922 0.72266 0.875 1.4531 1.2852 2.1953 0.65234 1.1836 1.2773 2.4102 1.8594 3.6562 0.48047 1.0195 0.92969 2.0586 1.3477 3.1055 0.47266 1.1875 0.90625 2.375 1.3008 3.5781 0.28906 0.89062 0.56641 1.8164 0.82031 2.7422 0.36328 1.293 0.67578 2.5977 0.94141 3.9141 0.20703 1.043 0.39453 2.0898 0.55078 3.1406 0.18359 1.1953 0.32812 2.4336 0.4375 3.6836 0.09375 1.125 0.15625 2.207 0.19141 3.2891 0.019531 0.60156 0.03125 1.2656 0.03125 1.9336v300h-120v-155.16l-437.57 437.59c-21.629 21.629-55.664 23.293-79.199 4.9922l-5.6523-4.9922c-23.434-23.43-23.434-61.422 0-84.852l437.46-437.57h-155.04v-120z"/>
</svg>
